<?xml version="1.0" standalone="no"?>
<!DOCTYPE svg PUBLIC "-//W3C//DTD SVG 20010904//EN"
 "http://www.w3.org/TR/2001/REC-SVG-20010904/DTD/svg10.dtd">
<svg version="1.0" xmlns="http://www.w3.org/2000/svg"
 width="868.000000pt" height="868.000000pt" viewBox="0 0 868.000000 868.000000"
 preserveAspectRatio="xMidYMid meet">
<metadata>
Created by potrace 1.11, written by Peter Selinger 2001-2013
</metadata>
<g transform="translate(0.000000,868.000000) scale(0.100000,-0.100000)"
fill="#000000" stroke="none">
<path d="M4020 8624 c-678 -60 -1233 -225 -1798 -535 -373 -205 -701 -456
-1013 -776 -327 -336 -569 -680 -774 -1098 -226 -462 -341 -850 -412 -1390
-25 -196 -26 -788 0 -980 56 -423 129 -713 269 -1067 210 -537 514 -1007 917
-1421 710 -728 1598 -1165 2631 -1294 208 -26 792 -26 1000 0 989 123 1854
534 2544 1207 234 229 404 431 570 680 387 577 615 1193 703 1900 25 203 25
784 0 975 -72 540 -188 933 -412 1390 -205 418 -447 762 -774 1098 -707 726
-1594 1164 -2621 1293 -119 15 -717 28 -830 18z"/>
</g>
</svg>
